<svg xmlns="http://www.w3.org/2000/svg" xmlns:xlink="http://www.w3.org/1999/xlink" width="1200" zoomAndPan="magnify" viewBox="0 0 900 449.999984" height="600" preserveAspectRatio="xMidYMid meet" version="1.0"><defs><g/><clipPath id="675bc2e1cb"><path d="M 159 119.5 L 162 119.5 L 162 197 L 159 197 Z M 159 119.5 " clip-rule="nonzero"/></clipPath><clipPath id="d0eb7a51f3"><path d="M 35.261719 156 L 133 156 L 133 214 L 35.261719 214 Z M 35.261719 156 " clip-rule="nonzero"/></clipPath><clipPath id="d0e9468254"><path d="M 92 257 L 145 257 L 145 347.5 L 92 347.5 Z M 92 257 " clip-rule="nonzero"/></clipPath><clipPath id="53bdf3c75d"><path d="M 189 161 L 278.261719 161 L 278.261719 214 L 189 214 Z M 189 161 " clip-rule="nonzero"/></clipPath></defs><path fill="#6b99d6" d="M 160.054688 184.359375 L 160.417969 184.359375 L 160.417969 202.847656 L 160.234375 202.847656 C 145.570312 202.847656 133.640625 214.777344 133.640625 229.441406 L 133.273438 229.441406 C 133.273438 214.636719 145.269531 202.578125 160.054688 202.480469 Z M 160.054688 184.359375 " fill-opacity="1" fill-rule="nonzero"/><path fill="#6b99d6" d="M 186.832031 229.261719 L 205.320312 229.261719 L 205.320312 229.625 L 187.195312 229.625 C 187.097656 244.410156 175.042969 256.40625 160.238281 256.40625 L 160.238281 256.039062 C 174.902344 256.039062 186.832031 244.109375 186.832031 229.445312 Z M 186.832031 229.261719 " fill-opacity="1" fill-rule="nonzero"/><path fill="#6b99d6" d="M 204.953125 229.441406 L 205.683594 229.441406 C 205.683594 235.574219 204.480469 241.527344 202.109375 247.136719 C 202.023438 247.335938 201.9375 247.535156 201.851562 247.734375 L 201.183594 247.4375 C 201.269531 247.246094 201.351562 247.050781 201.433594 246.855469 C 203.769531 241.335938 204.953125 235.480469 204.953125 229.445312 Z M 199.148438 251.492188 L 199.785156 251.851562 C 199.089844 253.078125 198.332031 254.285156 197.523438 255.441406 L 196.921875 255.023438 C 197.714844 253.886719 198.464844 252.699219 199.148438 251.492188 Z M 159.871094 256.222656 L 160.601562 256.222656 L 160.601562 257.21875 L 159.871094 257.21875 Z M 193.234375 259.621094 L 193.773438 260.117188 C 193.320312 260.613281 192.847656 261.105469 192.375 261.578125 C 188.203125 265.75 183.34375 269.027344 177.929688 271.3125 C 177.675781 271.421875 177.414062 271.53125 177.15625 271.632812 L 176.886719 270.957031 C 177.140625 270.855469 177.394531 270.75 177.644531 270.640625 C 182.972656 268.390625 187.753906 265.167969 191.855469 261.0625 C 192.328125 260.59375 192.789062 260.109375 193.234375 259.625 Z M 159.871094 261.796875 L 160.601562 261.796875 L 160.601562 274.15625 C 162.449219 274.140625 164.300781 274.015625 166.109375 273.777344 L 166.207031 274.503906 C 164.246094 274.761719 162.238281 274.890625 160.238281 274.890625 L 159.871094 274.890625 L 159.871094 261.792969 Z M 159.871094 261.796875 " fill-opacity="1" fill-rule="nonzero"/><path fill="#6b99d6" d="M 182.492188 152.304688 L 182.808594 152.433594 C 187.335938 153.757812 191.777344 155.5 196.011719 157.609375 C 200.179688 159.6875 204.195312 162.148438 207.9375 164.917969 L 208.195312 165.109375 L 208.007812 165.371094 L 166.992188 220.804688 L 166.734375 220.613281 C 165.695312 219.847656 164.558594 219.28125 163.351562 218.925781 L 163.050781 218.867188 L 163.117188 218.519531 Z M 207.300781 165.246094 C 203.660156 162.574219 199.765625 160.199219 195.726562 158.183594 C 191.617188 156.136719 187.308594 154.433594 182.917969 153.132812 L 163.820312 218.398438 C 164.894531 218.746094 165.914062 219.253906 166.851562 219.910156 Z M 84.945312 201.5 L 85.304688 201.640625 L 150.058594 225.371094 L 149.933594 225.679688 C 149.71875 226.273438 149.558594 226.859375 149.453125 227.460938 C 149.335938 228.105469 149.28125 228.753906 149.277344 229.445312 C 149.28125 230.742188 149.488281 231.945312 149.902344 233.128906 L 150.058594 233.425781 L 149.714844 233.5625 L 84.839844 256.828125 L 84.699219 256.535156 C 83.167969 252.273438 81.992188 247.835938 81.203125 243.339844 C 80.402344 238.765625 80 234.089844 80 229.445312 C 80 224.703125 80.417969 219.933594 81.253906 215.269531 C 82.070312 210.703125 83.289062 206.191406 84.878906 201.859375 Z M 149.230469 225.75 L 85.375 202.351562 C 83.847656 206.566406 82.675781 210.945312 81.882812 215.382812 C 81.054688 220.011719 80.632812 224.738281 80.636719 229.445312 C 80.636719 234.054688 81.035156 238.691406 81.832031 243.226562 C 82.59375 247.582031 83.722656 251.882812 85.191406 256.019531 L 149.203125 233.0625 C 148.824219 231.898438 148.640625 230.710938 148.636719 229.441406 C 148.636719 228.710938 148.699219 228.027344 148.820312 227.347656 C 148.914062 226.808594 149.046875 226.285156 149.226562 225.75 Z M 171.042969 231.335938 L 171.359375 231.394531 L 238.988281 244.957031 L 238.90625 245.277344 C 237.972656 249.921875 236.617188 254.515625 234.875 258.917969 C 233.167969 263.246094 231.066406 267.445312 228.628906 271.410156 L 228.503906 271.664062 L 228.203125 271.546875 L 228.175781 271.53125 L 169.402344 235.410156 L 169.605469 235.136719 C 170.269531 234.054688 170.730469 232.878906 170.980469 231.648438 Z M 238.214844 245.457031 L 171.539062 232.082031 C 171.289062 233.179688 170.875 234.226562 170.308594 235.214844 L 228.242188 270.820312 C 230.59375 266.964844 232.625 262.882812 234.28125 258.6875 C 235.972656 254.410156 237.292969 249.960938 238.214844 245.457031 Z M 238.214844 245.457031 " fill-opacity="1" fill-rule="nonzero"/><path fill="#6b99d6" d="M 146.953125 156.335938 L 147.011719 156.5625 L 154.175781 194.324219 L 153.949219 194.375 C 149.925781 195.140625 146.089844 196.589844 142.550781 198.679688 C 139.070312 200.734375 135.984375 203.347656 133.371094 206.449219 L 133.21875 206.65625 L 133.03125 206.476562 L 103.652344 181.71875 L 103.792969 181.53125 C 106.480469 178.339844 109.453125 175.359375 112.632812 172.667969 C 115.824219 169.964844 119.269531 167.515625 122.867188 165.382812 C 126.503906 163.234375 130.355469 161.382812 134.308594 159.882812 C 138.328125 158.355469 142.511719 157.175781 146.738281 156.375 Z M 153.644531 193.964844 L 146.601562 156.867188 C 142.472656 157.664062 138.394531 158.820312 134.46875 160.308594 C 130.539062 161.800781 126.714844 163.640625 123.097656 165.777344 C 119.519531 167.894531 116.097656 170.328125 112.925781 173.015625 C 109.824219 175.644531 106.917969 178.546875 104.289062 181.652344 L 133.164062 205.984375 C 135.78125 202.917969 138.859375 200.328125 142.316406 198.28125 C 145.839844 196.203125 149.652344 194.75 153.644531 193.964844 Z M 178.410156 260.40625 L 178.503906 260.589844 L 197.425781 294.042969 L 197.226562 294.164062 C 191.78125 297.25 185.941406 299.632812 179.875 301.253906 C 173.628906 302.917969 167.175781 303.765625 160.695312 303.765625 L 160.660156 303.765625 C 156.492188 303.765625 152.304688 303.414062 148.21875 302.726562 L 147.988281 302.679688 L 148.027344 302.457031 L 154.429688 264.542969 L 154.664062 264.589844 C 156.621094 264.917969 158.640625 265.085938 160.664062 265.085938 C 166.902344 265.082031 172.796875 263.539062 178.1875 260.5 L 178.214844 260.484375 L 178.410156 260.410156 Z M 196.808594 293.875 L 178.214844 261.003906 C 172.8125 264.011719 166.90625 265.539062 160.664062 265.542969 C 158.691406 265.542969 156.722656 265.386719 154.800781 265.074219 L 148.515625 302.308594 C 152.503906 302.96875 156.585938 303.304688 160.65625 303.304688 L 160.695312 303.304688 C 167.136719 303.304688 173.546875 302.464844 179.753906 300.808594 C 185.710938 299.21875 191.445312 296.886719 196.804688 293.875 Z M 196.808594 293.875 " fill-opacity="1" fill-rule="nonzero"/><path fill="#6b99d6" d="M 160.28125 161.277344 C 163.339844 161.277344 166.394531 161.484375 169.433594 161.894531 L 169.621094 161.921875 L 169.074219 165.925781 L 168.886719 165.902344 C 162.910156 165.085938 156.84375 165.125 150.855469 166.015625 L 150.667969 166.042969 L 150.074219 162.046875 L 150.261719 162.019531 C 153.585938 161.523438 156.9375 161.277344 160.285156 161.277344 Z M 169.191406 162.246094 C 162.996094 161.421875 156.710938 161.460938 150.507812 162.367188 L 150.988281 165.613281 C 156.886719 164.75 162.863281 164.710938 168.75 165.496094 Z M 139.171875 164.628906 L 140.433594 168.46875 L 140.25 168.527344 C 134.011719 170.574219 128.152344 173.546875 122.832031 177.359375 L 122.675781 177.46875 L 120.320312 174.1875 L 120.476562 174.078125 C 126.132812 170.023438 132.359375 166.863281 138.988281 164.6875 Z M 139.953125 168.226562 L 138.929688 165.109375 C 132.464844 167.25 126.382812 170.332031 120.855469 174.273438 L 122.765625 176.941406 C 128.023438 173.195312 133.804688 170.261719 139.953125 168.226562 Z M 183.941406 165.542969 L 184.121094 165.609375 C 185.917969 166.285156 187.710938 167.042969 189.449219 167.871094 L 189.460938 167.875 C 194 170.03125 198.296875 172.679688 202.230469 175.746094 L 202.378906 175.863281 L 199.890625 179.050781 L 199.742188 178.933594 C 196.046875 176.046875 192.003906 173.554688 187.722656 171.523438 C 186.082031 170.746094 184.394531 170.03125 182.703125 169.394531 L 182.523438 169.328125 Z M 189.285156 168.214844 C 187.613281 167.417969 185.890625 166.6875 184.164062 166.03125 L 183.011719 169.105469 C 184.65625 169.726562 186.292969 170.425781 187.882812 171.179688 C 192.132812 173.195312 196.148438 175.660156 199.828125 178.515625 L 201.84375 175.929688 C 197.976562 172.929688 193.753906 170.335938 189.289062 168.21875 L 189.367188 168.042969 L 189.285156 168.21875 Z M 115.804688 177.746094 L 118.445312 180.804688 L 118.300781 180.929688 C 117.273438 181.816406 116.261719 182.746094 115.292969 183.695312 L 115.160156 183.832031 L 112.328125 180.945312 L 112.460938 180.8125 C 113.492188 179.804688 114.566406 178.8125 115.65625 177.871094 L 115.800781 177.746094 Z M 117.910156 180.765625 L 115.765625 178.28125 C 114.777344 179.140625 113.804688 180.035156 112.867188 180.949219 L 115.167969 183.289062 C 116.054688 182.425781 116.972656 181.578125 117.910156 180.765625 Z M 210.59375 183.492188 L 210.71875 183.632812 C 215.027344 188.386719 218.644531 193.726562 221.46875 199.511719 L 221.554688 199.683594 L 217.921875 201.457031 L 217.835938 201.285156 C 215.179688 195.84375 211.777344 190.816406 207.726562 186.347656 L 207.601562 186.207031 Z M 221.042969 199.507812 C 218.277344 193.878906 214.75 188.671875 210.566406 184.03125 L 208.136719 186.234375 C 212.113281 190.648438 215.460938 195.597656 218.09375 200.949219 L 221.039062 199.507812 Z M 109.34375 184.085938 L 112.371094 186.765625 L 112.246094 186.910156 C 108.261719 191.410156 104.917969 196.476562 102.316406 201.964844 C 101.886719 202.867188 101.472656 203.796875 101.082031 204.722656 L 101.011719 204.898438 L 97.28125 203.335938 L 97.355469 203.160156 C 97.765625 202.179688 98.207031 201.195312 98.664062 200.230469 C 101.429688 194.402344 104.980469 189.019531 109.21875 184.230469 Z M 111.832031 186.800781 L 109.378906 184.625 C 105.21875 189.347656 101.730469 194.652344 99.003906 200.394531 C 98.578125 201.292969 98.164062 202.214844 97.777344 203.128906 L 100.800781 204.398438 C 101.171875 203.527344 101.5625 202.652344 101.96875 201.800781 C 104.558594 196.335938 107.875 191.292969 111.832031 186.800781 Z M 95.746094 207.382812 L 99.570312 208.6875 L 99.511719 208.867188 C 97.5625 214.59375 96.4375 220.554688 96.171875 226.585938 L 96.160156 226.773438 L 92.125 226.59375 L 92.132812 226.40625 C 92.414062 219.992188 93.609375 213.652344 95.683594 207.5625 L 95.742188 207.382812 Z M 99.089844 208.925781 L 95.984375 207.867188 C 93.980469 213.808594 92.816406 219.984375 92.523438 226.234375 L 95.800781 226.378906 C 96.082031 220.441406 97.1875 214.570312 99.089844 208.925781 Z M 226.523438 213.59375 L 226.566406 213.777344 C 228.175781 220.574219 228.734375 227.535156 228.222656 234.472656 L 228.210938 234.660156 L 224.179688 234.363281 L 224.191406 234.171875 C 224.671875 227.652344 224.148438 221.101562 222.632812 214.707031 L 222.589844 214.523438 L 226.523438 213.589844 Z M 227.855469 234.253906 C 228.335938 227.484375 227.792969 220.6875 226.242188 214.050781 L 223.050781 214.808594 C 224.527344 221.117188 225.042969 227.574219 224.585938 234.015625 L 227.855469 234.257812 Z M 96.597656 237.277344 L 96.621094 237.464844 C 97.449219 243.964844 99.253906 250.28125 101.996094 256.242188 L 102.074219 256.414062 L 98.402344 258.101562 L 98.324219 257.929688 C 95.414062 251.597656 93.492188 244.882812 92.613281 237.976562 L 92.589844 237.789062 Z M 101.570312 256.230469 C 98.882812 250.34375 97.101562 244.109375 96.269531 237.703125 L 93.015625 238.117188 C 93.890625 244.855469 95.765625 251.40625 98.589844 257.597656 L 101.570312 256.226562 Z M 222.511719 244.746094 L 226.433594 245.726562 L 226.386719 245.910156 C 225.296875 250.269531 223.757812 254.5625 221.8125 258.660156 C 221.007812 260.359375 220.121094 262.046875 219.179688 263.667969 L 219.085938 263.832031 L 215.585938 261.804688 L 215.683594 261.640625 C 216.566406 260.113281 217.402344 258.527344 218.160156 256.925781 C 219.992188 253.070312 221.4375 249.035156 222.464844 244.929688 L 222.511719 244.742188 Z M 225.972656 246.003906 L 222.789062 245.207031 C 221.761719 249.273438 220.320312 253.269531 218.503906 257.09375 C 217.769531 258.644531 216.960938 260.1875 216.105469 261.671875 L 218.945312 263.316406 C 219.84375 261.753906 220.691406 260.132812 221.46875 258.5 C 223.375 254.480469 224.886719 250.28125 225.972656 246.003906 Z M 104.539062 261.203125 L 104.636719 261.367188 C 105.308594 262.542969 106.027344 263.714844 106.777344 264.84375 L 106.882812 265.003906 L 103.507812 267.230469 L 103.402344 267.070312 C 102.609375 265.871094 101.84375 264.628906 101.128906 263.375 L 101.035156 263.210938 Z M 106.351562 264.894531 C 105.675781 263.859375 105.019531 262.796875 104.398438 261.722656 L 101.554688 263.355469 C 102.207031 264.488281 102.898438 265.613281 103.617188 266.707031 L 106.355469 264.898438 Z M 213.4375 265.242188 L 216.785156 267.503906 L 216.679688 267.664062 C 215.875 268.859375 215.015625 270.039062 214.136719 271.179688 L 214.023438 271.328125 L 210.824219 268.859375 L 210.941406 268.707031 C 211.769531 267.636719 212.570312 266.523438 213.332031 265.402344 Z M 216.253906 267.605469 L 213.539062 265.769531 C 212.84375 266.792969 212.109375 267.808594 211.359375 268.785156 L 213.953125 270.792969 C 214.746094 269.757812 215.519531 268.6875 216.253906 267.605469 Z M 109.234375 268.308594 L 109.347656 268.460938 C 113.023438 273.261719 117.355469 277.507812 122.226562 281.082031 L 122.378906 281.195312 L 119.988281 284.453125 L 119.835938 284.34375 C 114.65625 280.539062 110.050781 276.023438 106.140625 270.917969 L 106.023438 270.765625 Z M 121.84375 281.277344 C 117.058594 277.742188 112.796875 273.558594 109.160156 268.84375 L 106.554688 270.835938 C 110.378906 275.800781 114.867188 280.203125 119.902344 283.921875 Z M 207.34375 272.960938 L 210.304688 275.710938 L 210.175781 275.851562 C 205.441406 280.949219 199.960938 285.277344 193.882812 288.71875 L 193.71875 288.8125 L 191.726562 285.292969 L 191.890625 285.203125 C 197.605469 281.964844 202.761719 277.894531 207.214844 273.097656 L 207.34375 272.957031 Z M 209.769531 275.730469 L 207.363281 273.5 C 202.957031 278.214844 197.871094 282.230469 192.242188 285.441406 L 193.859375 288.292969 C 199.78125 284.917969 205.132812 280.691406 209.765625 275.730469 Z M 131.355469 286.679688 L 131.523438 286.765625 C 131.929688 286.96875 132.34375 287.167969 132.753906 287.363281 C 138.285156 289.988281 144.121094 291.804688 150.105469 292.765625 L 150.292969 292.796875 L 149.65625 296.785156 L 149.46875 296.757812 C 143.105469 295.734375 136.898438 293.804688 131.023438 291.015625 C 130.585938 290.808594 130.144531 290.59375 129.714844 290.378906 L 129.546875 290.292969 Z M 149.859375 293.109375 C 143.902344 292.136719 138.097656 290.320312 132.59375 287.710938 C 132.238281 287.542969 131.878906 287.367188 131.523438 287.191406 L 130.058594 290.125 C 130.429688 290.3125 130.808594 290.496094 131.1875 290.675781 C 136.976562 293.417969 143.082031 295.328125 149.339844 296.351562 L 149.863281 293.113281 Z M 182.164062 289.6875 L 183.539062 293.492188 L 183.359375 293.554688 C 177.304688 295.738281 170.992188 297.054688 164.589844 297.472656 L 164.398438 297.484375 L 164.136719 293.449219 L 164.328125 293.4375 C 170.351562 293.046875 176.292969 291.808594 181.984375 289.753906 Z M 183.050781 293.261719 L 181.9375 290.175781 C 176.324219 292.183594 170.472656 293.402344 164.542969 293.804688 L 164.753906 297.078125 C 170.992188 296.65625 177.148438 295.375 183.050781 293.261719 Z M 155.640625 293.410156 L 155.832031 293.421875 C 157.179688 293.515625 158.550781 293.566406 159.902344 293.570312 L 160.09375 293.570312 C 160.09375 293.570312 160.074219 297.613281 160.074219 297.613281 L 159.882812 297.613281 C 158.445312 297.605469 156.988281 297.554688 155.554688 297.453125 L 155.363281 297.441406 Z M 159.710938 293.953125 C 158.472656 293.941406 157.226562 293.894531 155.996094 293.816406 L 155.769531 297.089844 C 157.070312 297.175781 158.390625 297.222656 159.695312 297.230469 Z M 159.710938 293.953125 " fill-opacity="1" fill-rule="nonzero"/><path fill="#6b99d6" d="M 160.164062 197.324219 C 161.253906 197.324219 162.351562 197.382812 163.453125 197.492188 C 165.699219 197.71875 167.914062 198.175781 170.046875 198.855469 L 170.21875 198.914062 L 168.996094 202.746094 L 168.820312 202.691406 C 166.957031 202.09375 165.015625 201.695312 163.050781 201.496094 C 158.675781 201.054688 154.390625 201.617188 150.308594 203.160156 L 150.140625 203.226562 L 148.714844 199.460938 L 148.882812 199.394531 C 152.523438 198.015625 156.304688 197.324219 160.164062 197.324219 Z M 169.757812 199.152344 C 167.707031 198.507812 165.574219 198.074219 163.417969 197.855469 C 158.535156 197.363281 153.746094 197.976562 149.183594 199.671875 L 150.347656 202.753906 C 154.433594 201.238281 158.714844 200.691406 163.085938 201.132812 C 165.015625 201.328125 166.921875 201.714844 168.753906 202.289062 L 169.757812 199.148438 Z M 143.363281 202.117188 L 145.5 205.53125 L 145.34375 205.628906 C 144.238281 206.320312 143.171875 207.097656 142.171875 207.9375 L 142.03125 208.054688 L 139.441406 204.972656 L 139.582031 204.855469 C 140.722656 203.894531 141.945312 203.007812 143.207031 202.214844 Z M 144.996094 205.414062 L 143.25 202.621094 C 142.105469 203.34375 141 204.148438 139.957031 205.015625 L 142.078125 207.539062 C 143.003906 206.769531 143.984375 206.058594 144.996094 205.414062 Z M 180.398438 204.4375 L 180.539062 204.554688 C 183.109375 206.652344 185.332031 209.128906 187.144531 211.90625 C 188.976562 214.707031 190.347656 217.761719 191.230469 220.976562 L 191.277344 221.15625 L 187.390625 222.21875 L 187.34375 222.039062 C 185.816406 216.457031 182.496094 211.351562 177.992188 207.671875 L 177.851562 207.558594 Z M 190.824219 220.898438 C 189.953125 217.78125 188.613281 214.824219 186.835938 212.105469 C 185.074219 209.410156 182.929688 207.003906 180.449219 204.953125 L 178.367188 207.503906 C 182.808594 211.183594 186.09375 216.234375 187.648438 221.765625 Z M 136.21875 208.121094 L 139.242188 210.78125 L 139.121094 210.917969 C 135.242188 215.332031 132.878906 220.765625 132.285156 226.632812 L 132.265625 226.816406 L 128.261719 226.410156 L 128.277344 226.230469 C 128.953125 219.523438 131.65625 213.308594 136.089844 208.257812 L 136.210938 208.121094 Z M 138.726562 210.8125 L 136.25 208.636719 C 131.976562 213.554688 129.355469 219.578125 128.664062 226.082031 L 131.945312 226.414062 C 132.566406 220.601562 134.90625 215.214844 138.726562 210.8125 Z M 192.128906 225.582031 L 192.152344 225.765625 C 192.320312 227.246094 192.386719 228.753906 192.347656 230.25 L 192.34375 230.433594 L 188.320312 230.328125 L 188.324219 230.144531 C 188.355469 228.835938 188.300781 227.515625 188.152344 226.226562 L 188.128906 226.042969 L 192.132812 225.585938 Z M 191.984375 230.054688 C 192.011719 228.699219 191.953125 227.332031 191.808594 225.988281 L 188.535156 226.363281 C 188.660156 227.554688 188.714844 228.765625 188.691406 229.96875 L 191.988281 230.054688 Z M 132.246094 231.867188 L 132.261719 232.050781 C 132.839844 238.328125 135.574219 244.304688 139.964844 248.890625 L 140.089844 249.019531 L 137.183594 251.804688 L 137.054688 251.671875 C 132.039062 246.4375 128.914062 239.597656 128.253906 232.417969 L 128.234375 232.238281 Z M 139.570312 249.007812 C 135.242188 244.433594 132.53125 238.5 131.914062 232.265625 L 128.632812 232.570312 C 129.316406 239.539062 132.347656 246.175781 137.191406 251.289062 Z M 187.679688 235.46875 L 191.605469 236.355469 L 191.566406 236.53125 C 190.761719 240.105469 189.363281 243.484375 187.414062 246.578125 C 185.511719 249.589844 183.136719 252.25 180.347656 254.488281 L 180.207031 254.601562 L 177.683594 251.464844 L 177.828125 251.347656 C 182.769531 247.378906 186.253906 241.804688 187.636719 235.648438 Z M 191.171875 236.628906 L 187.957031 235.90625 C 186.539062 242.011719 183.082031 247.542969 178.199219 251.519531 L 180.265625 254.085938 C 182.957031 251.898438 185.257812 249.304688 187.105469 246.378906 C 189.003906 243.375 190.371094 240.09375 191.171875 236.628906 Z M 144.019531 252.390625 L 144.167969 252.496094 C 145.242188 253.246094 146.375 253.921875 147.539062 254.511719 L 147.703125 254.59375 L 145.878906 258.183594 L 145.714844 258.101562 C 144.386719 257.429688 143.089844 256.652344 141.863281 255.796875 L 141.714844 255.691406 Z M 147.210938 254.753906 C 146.140625 254.203125 145.101562 253.582031 144.109375 252.898438 L 142.226562 255.597656 C 143.34375 256.371094 144.515625 257.074219 145.71875 257.691406 Z M 151.304688 256.085938 L 151.480469 256.140625 C 153.398438 256.769531 155.398438 257.1875 157.425781 257.394531 C 161.234375 257.777344 165 257.398438 168.621094 256.265625 L 168.796875 256.210938 L 170 260.054688 L 169.824219 260.109375 C 165.683594 261.40625 161.375 261.839844 157.023438 261.402344 C 154.710938 261.167969 152.425781 260.6875 150.230469 259.96875 L 150.058594 259.914062 L 151.308594 256.085938 Z M 160.289062 257.90625 C 159.324219 257.90625 158.355469 257.855469 157.386719 257.757812 C 155.394531 257.554688 153.429688 257.148438 151.539062 256.546875 L 150.515625 259.679688 C 152.628906 260.355469 154.828125 260.8125 157.058594 261.035156 C 161.296875 261.464844 165.496094 261.050781 169.539062 259.8125 L 168.550781 256.667969 C 165.863281 257.492188 163.09375 257.90625 160.285156 257.90625 Z M 160.289062 257.90625 " fill-opacity="1" fill-rule="nonzero"/><path fill="#6b99d6" d="M 160.234375 203.359375 C 164.832031 203.359375 169.355469 204.570312 173.308594 206.867188 L 172.800781 207.738281 C 169 205.53125 164.65625 204.367188 160.234375 204.367188 C 158.003906 204.367188 155.789062 204.660156 153.652344 205.238281 L 153.390625 204.265625 C 155.609375 203.664062 157.914062 203.359375 160.234375 203.359375 Z M 147.773438 206.523438 L 148.257812 207.40625 C 147.054688 208.058594 145.894531 208.820312 144.8125 209.667969 L 144.191406 208.875 C 145.320312 207.996094 146.523438 207.203125 147.773438 206.523438 Z M 140.789062 212.058594 L 141.539062 212.730469 C 137.425781 217.328125 135.160156 223.265625 135.160156 229.445312 L 134.152344 229.445312 C 134.152344 223.015625 136.507812 216.84375 140.789062 212.058594 Z M 181.675781 214.585938 C 184.714844 218.960938 186.320312 224.097656 186.320312 229.441406 C 186.320312 230.515625 186.253906 231.597656 186.125 232.65625 L 185.125 232.535156 C 185.25 231.515625 185.3125 230.476562 185.3125 229.441406 C 185.3125 224.300781 183.769531 219.363281 180.847656 215.15625 L 181.675781 214.582031 Z M 135.398438 232.917969 C 135.585938 234.277344 135.886719 235.628906 136.300781 236.9375 L 135.335938 237.238281 C 134.910156 235.875 134.597656 234.46875 134.398438 233.054688 Z M 184.183594 236.910156 L 185.144531 237.210938 C 184.722656 238.574219 184.179688 239.910156 183.535156 241.1875 L 182.636719 240.734375 C 183.257812 239.507812 183.777344 238.21875 184.1875 236.910156 Z M 138.015625 241.074219 C 140.886719 246.550781 145.648438 250.757812 151.425781 252.929688 L 151.070312 253.871094 C 145.0625 251.617188 140.109375 247.238281 137.121094 241.542969 L 138.015625 241.078125 Z M 179.425781 245.585938 L 180.195312 246.234375 C 177.992188 248.855469 175.339844 250.980469 172.316406 252.566406 C 169.210938 254.195312 165.855469 255.164062 162.34375 255.445312 L 162.265625 254.441406 C 168.976562 253.902344 175.070312 250.757812 179.425781 245.589844 Z M 179.425781 245.585938 " fill-opacity="1" fill-rule="nonzero"/><path fill="#6b99d6" d="M 105.203125 163.074219 L 139.105469 203.476562 L 138.71875 203.800781 C 124.582031 215.664062 122.730469 236.820312 134.59375 250.957031 C 140.339844 257.808594 148.410156 262.007812 157.316406 262.785156 C 166.222656 263.566406 174.898438 260.828125 181.75 255.082031 C 188.597656 249.335938 192.800781 241.265625 193.578125 232.359375 C 194.355469 223.453125 191.621094 214.773438 185.871094 207.925781 L 186.644531 207.277344 C 189.636719 210.84375 191.839844 214.890625 193.195312 219.300781 C 194.503906 223.5625 194.96875 227.984375 194.578125 232.445312 C 194.1875 236.90625 192.964844 241.179688 190.933594 245.152344 C 188.832031 249.261719 185.960938 252.863281 182.390625 255.855469 C 178.828125 258.847656 174.78125 261.050781 170.371094 262.40625 C 166.109375 263.714844 161.683594 264.179688 157.226562 263.789062 C 152.765625 263.398438 148.492188 262.171875 144.519531 260.144531 C 140.410156 258.042969 136.808594 255.167969 133.816406 251.601562 C 130.824219 248.039062 128.621094 243.992188 127.265625 239.578125 C 125.957031 235.320312 125.492188 230.894531 125.882812 226.433594 C 126.273438 221.972656 127.496094 217.699219 129.527344 213.730469 C 131.550781 209.765625 134.296875 206.28125 137.683594 203.351562 L 104.425781 163.71875 L 105.195312 163.070312 Z M 105.203125 163.074219 " fill-opacity="1" fill-rule="nonzero"/><path fill="#6b99d6" d="M 160.238281 189.636719 C 161.078125 189.636719 161.933594 189.660156 162.769531 189.714844 L 162.683594 191.085938 C 161.875 191.035156 161.050781 191.011719 160.238281 191.011719 C 157.691406 191.011719 155.140625 191.261719 152.667969 191.753906 L 152.402344 190.410156 C 154.964844 189.898438 157.601562 189.636719 160.238281 189.636719 Z M 167.386719 190.277344 C 174.433594 191.554688 181.023438 194.738281 186.4375 199.476562 L 185.535156 200.507812 C 180.308594 195.933594 173.945312 192.863281 167.144531 191.628906 Z M 141.644531 194.234375 L 142.289062 195.449219 C 140.96875 196.148438 139.679688 196.929688 138.449219 197.777344 L 137.667969 196.648438 C 138.941406 195.773438 140.28125 194.960938 141.644531 194.238281 Z M 136.015625 197.851562 L 136.851562 198.941406 C 131.339844 203.171875 127.074219 208.804688 124.515625 215.226562 L 123.242188 214.71875 C 125.890625 208.066406 130.308594 202.234375 136.015625 197.851562 Z M 187.945312 200.867188 C 189.054688 201.941406 190.113281 203.09375 191.089844 204.292969 L 190.027344 205.160156 C 189.082031 204.003906 188.0625 202.890625 186.988281 201.851562 Z M 196.96875 214.078125 C 198.3125 217.285156 199.226562 220.660156 199.6875 224.113281 L 198.328125 224.292969 C 197.878906 220.960938 196.996094 217.703125 195.699219 214.605469 Z M 121.773438 219.140625 L 123.101562 219.492188 C 122.238281 222.722656 121.800781 226.070312 121.800781 229.445312 C 121.800781 234.820312 122.886719 240.019531 125.03125 244.894531 L 123.773438 245.449219 C 121.554688 240.394531 120.429688 235.011719 120.429688 229.445312 C 120.429688 225.949219 120.882812 222.484375 121.777344 219.140625 Z M 200.035156 228.75 C 200.042969 228.980469 200.042969 229.214844 200.042969 229.449219 C 200.042969 236.402344 198.222656 243.246094 194.78125 249.242188 L 193.589844 248.558594 C 196.914062 242.773438 198.671875 236.164062 198.671875 229.449219 C 198.671875 229.222656 198.671875 229 198.664062 228.773438 Z M 127.074219 248.894531 C 128.777344 251.789062 130.851562 254.453125 133.246094 256.8125 L 132.28125 257.789062 C 129.800781 255.34375 127.652344 252.585938 125.890625 249.589844 Z M 192.558594 250.25 L 193.714844 250.992188 C 192.875 252.292969 191.953125 253.554688 190.96875 254.75 L 189.910156 253.878906 C 190.859375 252.722656 191.75 251.503906 192.558594 250.25 Z M 181.757812 261.296875 L 182.527344 262.433594 C 179.640625 264.386719 176.515625 265.953125 173.230469 267.085938 L 172.785156 265.785156 C 175.953125 264.691406 178.972656 263.179688 181.757812 261.292969 Z M 142.117188 263.351562 C 143.433594 264.058594 144.808594 264.691406 146.195312 265.238281 L 145.695312 266.515625 C 144.257812 265.953125 142.835938 265.292969 141.46875 264.5625 Z M 148.058594 265.914062 C 151.972656 267.21875 156.070312 267.882812 160.234375 267.882812 C 163.007812 267.882812 165.777344 267.585938 168.460938 267 L 168.75 268.339844 C 165.972656 268.949219 163.105469 269.253906 160.234375 269.253906 C 155.917969 269.253906 151.675781 268.570312 147.621094 267.214844 L 148.054688 265.914062 Z M 148.058594 265.914062 " fill-opacity="1" fill-rule="nonzero"/><path fill="#6b99d6" d="M 161.402344 191.605469 C 181.472656 192.214844 197.585938 208.417969 198.078125 228.492188 L 197.441406 228.507812 C 196.953125 208.769531 181.117188 192.84375 161.382812 192.246094 Z M 161.402344 191.605469 " fill-opacity="1" fill-rule="nonzero"/><path fill="#6b99d6" d="M 122.382812 229.441406 L 123.023438 229.441406 C 123.023438 249.726562 138.898438 266.066406 159.164062 266.640625 L 159.144531 267.28125 C 149.265625 267 140.019531 262.941406 133.113281 255.847656 C 126.195312 248.742188 122.382812 239.363281 122.382812 229.441406 Z M 122.382812 229.441406 " fill-opacity="1" fill-rule="nonzero"/><path fill="#6b99d6" d="M 160.238281 175.984375 L 160.238281 176.992188 C 131.316406 176.992188 107.789062 200.523438 107.789062 229.441406 C 107.789062 258.363281 131.316406 281.890625 160.238281 281.890625 C 189.15625 281.890625 212.6875 258.363281 212.6875 229.441406 L 213.691406 229.441406 C 213.691406 236.660156 212.28125 243.660156 209.492188 250.25 C 206.800781 256.613281 202.945312 262.332031 198.035156 267.242188 C 193.125 272.152344 187.410156 276.003906 181.042969 278.699219 C 174.449219 281.484375 167.449219 282.902344 160.234375 282.902344 C 153.019531 282.902344 146.015625 281.488281 139.425781 278.699219 C 133.0625 276.007812 127.34375 272.152344 122.433594 267.242188 C 117.527344 262.332031 113.671875 256.617188 110.976562 250.25 C 108.191406 243.660156 106.777344 236.660156 106.777344 229.441406 C 106.777344 222.226562 108.1875 215.222656 110.976562 208.636719 C 113.671875 202.269531 117.523438 196.550781 122.433594 191.644531 C 127.34375 186.734375 133.058594 182.878906 139.425781 180.1875 C 146.019531 177.398438 153.019531 175.984375 160.234375 175.984375 Z M 160.238281 175.984375 " fill-opacity="1" fill-rule="nonzero"/><path fill="#6b99d6" d="M 162.9375 178.707031 C 173.238281 179.25 183.007812 182.859375 191.183594 189.148438 C 195.144531 192.191406 198.625 195.792969 201.539062 199.847656 C 204.484375 203.949219 206.792969 208.453125 208.398438 213.222656 L 207.273438 213.601562 C 200.839844 194.496094 183 180.949219 162.875 179.894531 L 162.941406 178.707031 Z M 162.9375 178.707031 " fill-opacity="1" fill-rule="nonzero"/><path fill="#6b99d6" d="M 160.238281 167.652344 C 161.328125 167.652344 162.433594 167.679688 163.519531 167.738281 L 163.75 167.75 L 163.449219 173.507812 L 163.21875 173.496094 C 162.230469 173.441406 161.226562 173.417969 160.238281 173.417969 C 158.996094 173.417969 157.746094 173.457031 156.515625 173.539062 L 156.285156 173.554688 L 155.90625 167.800781 L 156.136719 167.785156 C 157.492188 167.695312 158.871094 167.652344 160.234375 167.652344 Z M 163.269531 168.183594 C 162.261719 168.132812 161.242188 168.109375 160.238281 168.109375 C 158.957031 168.109375 157.667969 168.148438 156.394531 168.226562 L 156.714844 173.066406 C 157.878906 172.996094 159.0625 172.960938 160.238281 172.960938 C 161.160156 172.960938 162.09375 172.980469 163.015625 173.027344 Z M 141.222656 170.632812 L 143.015625 176.113281 L 142.796875 176.183594 C 137.164062 178.027344 131.878906 180.746094 127.082031 184.273438 L 126.898438 184.410156 L 123.484375 179.765625 L 123.667969 179.628906 C 128.957031 175.738281 134.789062 172.738281 141.003906 170.703125 Z M 142.4375 175.820312 L 140.929688 171.210938 C 134.917969 173.203125 129.261719 176.113281 124.125 179.863281 L 127 183.769531 C 131.722656 180.328125 136.914062 177.652344 142.4375 175.820312 Z M 115.035156 187.3125 L 119.265625 191.226562 L 119.109375 191.398438 C 114.722656 196.136719 111.214844 201.539062 108.691406 207.449219 L 108.601562 207.660156 L 103.296875 205.398438 L 103.386719 205.1875 C 106.175781 198.664062 110.039062 192.707031 114.878906 187.480469 Z M 218.738281 209.496094 L 218.8125 209.714844 C 220.894531 215.894531 221.976562 222.367188 222.027344 228.949219 L 222.027344 229.175781 C 222.027344 229.175781 216.265625 229.222656 216.265625 229.222656 L 216.265625 228.992188 C 216.214844 223.023438 215.234375 217.15625 213.351562 211.554688 L 213.277344 211.335938 Z M 101.300781 210.820312 L 106.804688 212.535156 L 106.734375 212.753906 C 106.339844 214.023438 105.984375 215.320312 105.683594 216.617188 L 105.632812 216.839844 L 100.019531 215.523438 L 100.070312 215.300781 C 100.40625 213.871094 100.792969 212.441406 101.230469 211.039062 L 101.296875 210.820312 Z M 99.195312 219.785156 L 104.894531 220.65625 L 104.859375 220.886719 C 104.429688 223.695312 104.210938 226.574219 104.210938 229.445312 C 104.210938 232.507812 104.457031 235.574219 104.949219 238.570312 L 104.984375 238.796875 L 99.292969 239.726562 L 99.257812 239.5 C 98.71875 236.199219 98.441406 232.8125 98.441406 229.441406 C 98.441406 226.285156 98.683594 223.109375 99.160156 220.011719 L 99.191406 219.78125 Z M 104.375 221.039062 L 99.578125 220.304688 C 99.128906 223.3125 98.902344 226.382812 98.902344 229.441406 C 98.902344 232.710938 99.164062 235.992188 99.675781 239.199219 L 104.460938 238.414062 C 103.992188 235.46875 103.753906 232.449219 103.753906 229.441406 C 103.753906 226.628906 103.964844 223.804688 104.375 221.039062 Z M 216.148438 233.117188 L 221.898438 233.511719 L 221.882812 233.742188 C 221.78125 235.203125 221.628906 236.683594 221.425781 238.128906 L 221.394531 238.355469 L 215.683594 237.554688 L 215.714844 237.324219 C 215.902344 236.011719 216.039062 234.671875 216.132812 233.347656 Z M 107.601562 248.683594 L 107.679688 248.898438 C 109.914062 254.921875 113.148438 260.488281 117.300781 265.433594 L 117.445312 265.609375 L 113.03125 269.3125 L 112.882812 269.140625 C 108.304688 263.683594 104.738281 257.546875 102.277344 250.898438 L 102.195312 250.683594 L 107.605469 248.679688 Z M 200.375 268.535156 L 204.488281 272.574219 L 204.328125 272.742188 C 199.734375 277.417969 194.460938 281.320312 188.65625 284.332031 L 188.453125 284.4375 L 185.800781 279.320312 L 186.003906 279.214844 C 191.265625 276.480469 196.046875 272.945312 200.214844 268.699219 Z M 120.984375 269.421875 L 121.148438 269.582031 C 122.101562 270.507812 123.097656 271.414062 124.113281 272.269531 L 124.289062 272.417969 L 120.570312 276.824219 L 120.394531 276.675781 C 119.273438 275.730469 118.175781 274.734375 117.125 273.710938 L 116.960938 273.550781 L 120.984375 269.417969 Z M 123.644531 272.472656 C 122.738281 271.699219 121.847656 270.894531 120.992188 270.066406 L 117.605469 273.542969 C 118.542969 274.445312 119.519531 275.332031 120.511719 276.175781 Z M 127.359375 274.8125 L 127.542969 274.949219 C 132.375 278.425781 137.691406 281.09375 143.34375 282.878906 L 143.558594 282.949219 L 141.824219 288.445312 L 141.605469 288.378906 C 135.367188 286.40625 129.503906 283.460938 124.175781 279.628906 L 123.992188 279.492188 Z M 182.28125 280.972656 L 184.53125 286.28125 L 184.320312 286.367188 C 182.972656 286.9375 181.585938 287.46875 180.199219 287.941406 L 179.984375 288.015625 L 178.121094 282.558594 L 178.335938 282.484375 C 179.59375 282.054688 180.847656 281.578125 182.070312 281.058594 L 182.28125 280.96875 Z M 183.929688 286.039062 L 182.039062 281.570312 C 180.941406 282.03125 179.824219 282.457031 178.703125 282.84375 L 180.269531 287.4375 C 181.5 287.011719 182.730469 286.542969 183.929688 286.039062 Z M 173.128906 283.984375 L 174.425781 289.601562 L 174.203125 289.65625 C 169.652344 290.707031 164.957031 291.238281 160.242188 291.238281 C 157.871094 291.238281 155.480469 291.101562 153.136719 290.835938 L 152.910156 290.808594 L 153.566406 285.082031 L 153.792969 285.105469 C 155.921875 285.351562 158.089844 285.472656 160.242188 285.472656 C 164.519531 285.472656 168.78125 284.988281 172.90625 284.039062 Z M 173.128906 283.984375 " fill-opacity="1" fill-rule="nonzero"/><path fill="#6b99d6" d="M 208.046875 213.316406 L 208.21875 213.257812 C 207.558594 211.324219 206.785156 209.429688 205.90625 207.585938 L 205.570312 206.898438 C 205.457031 206.667969 205.347656 206.4375 205.222656 206.214844 L 204.503906 204.859375 L 203.734375 203.535156 C 203.667969 203.425781 203.609375 203.3125 203.539062 203.207031 L 203.332031 202.882812 L 202.925781 202.234375 C 201.824219 200.515625 200.621094 198.855469 199.328125 197.273438 C 198.027344 195.699219 196.628906 194.207031 195.152344 192.792969 C 195.167969 192.414062 195.179688 192.027344 195.1875 191.636719 C 195.191406 191.445312 195.199219 191.246094 195.199219 191.054688 L 195.199219 190.476562 C 195.199219 190.476562 194.226562 189.621094 194.226562 189.621094 C 193.898438 189.339844 193.558594 189.070312 193.226562 188.796875 L 192.726562 188.386719 C 192.558594 188.25 192.382812 188.121094 192.210938 187.992188 L 191.179688 187.207031 L 190.125 186.460938 C 189.949219 186.335938 189.773438 186.210938 189.59375 186.089844 L 189.054688 185.734375 C 188.691406 185.5 188.332031 185.257812 187.964844 185.03125 L 186.859375 184.359375 C 186.121094 184.578125 185.378906 184.84375 184.664062 185.097656 L 184.078125 184.773438 C 183.886719 184.667969 183.683594 184.570312 183.488281 184.46875 L 182.296875 183.867188 C 181.488281 183.496094 180.691406 183.101562 179.863281 182.773438 L 179.246094 182.511719 C 179.144531 182.46875 179.042969 182.425781 178.9375 182.386719 L 178.625 182.265625 L 177.378906 181.796875 C 176.960938 181.644531 176.535156 181.511719 176.113281 181.367188 L 175.480469 181.152344 L 174.839844 180.964844 C 173.140625 180.4375 171.402344 180.042969 169.660156 179.699219 L 168.34375 179.464844 C 168.125 179.421875 167.902344 179.402344 167.6875 179.371094 L 167.023438 179.277344 L 166.363281 179.1875 C 166.144531 179.160156 165.921875 179.140625 165.699219 179.117188 L 164.371094 178.988281 L 164.355469 179.167969 C 169.234375 179.566406 174.050781 180.671875 178.605469 182.457031 C 183.160156 184.238281 187.453125 186.691406 191.304688 189.707031 C 195.15625 192.722656 198.570312 196.296875 201.402344 200.289062 C 204.234375 204.277344 206.480469 208.683594 208.042969 213.316406 Z M 208.046875 213.316406 " fill-opacity="1" fill-rule="nonzero"/><path fill="#6b99d6" d="M 197.683594 257.667969 L 197.832031 257.777344 C 199.65625 255.351562 201.253906 252.75 202.582031 250.023438 C 203.914062 247.292969 204.976562 244.4375 205.75 241.503906 C 207.308594 235.632812 207.703125 229.460938 206.925781 223.4375 C 206.152344 217.414062 204.207031 211.546875 201.21875 206.261719 C 199.726562 203.617188 197.972656 201.121094 195.996094 198.816406 C 194.019531 196.515625 191.820312 194.402344 189.4375 192.519531 C 184.675781 188.75 179.183594 185.910156 173.351562 184.222656 C 167.519531 182.53125 161.359375 181.988281 155.320312 182.628906 C 149.28125 183.261719 143.367188 185.070312 138.011719 187.9375 C 135.335938 189.367188 132.800781 191.058594 130.449219 192.984375 C 128.101562 194.90625 125.941406 197.058594 124.003906 199.394531 C 123.550781 199.496094 123.085938 199.601562 122.628906 199.714844 C 122.175781 199.835938 121.714844 199.957031 121.25 200.085938 C 119.96875 201.796875 118.792969 203.589844 117.734375 205.449219 L 117.78125 205.800781 L 117.835938 206.15625 L 117.949219 206.859375 C 117.988281 207.09375 118.019531 207.320312 118.066406 207.554688 L 118.199219 208.246094 C 115.832031 212.925781 114.253906 218.003906 113.570312 223.207031 C 112.882812 228.40625 113.070312 233.71875 114.113281 238.859375 L 114.292969 238.824219 C 113.90625 236.914062 113.636719 234.980469 113.484375 233.039062 C 113.460938 232.796875 113.449219 232.550781 113.433594 232.308594 L 113.390625 231.578125 L 113.367188 230.847656 C 113.359375 230.605469 113.347656 230.363281 113.351562 230.117188 C 113.347656 229.632812 113.335938 229.144531 113.351562 228.65625 L 113.363281 227.929688 L 113.394531 227.199219 C 113.410156 226.710938 113.453125 226.226562 113.488281 225.738281 C 113.5 225.496094 113.527344 225.253906 113.550781 225.011719 L 113.621094 224.285156 L 113.710938 223.558594 C 113.738281 223.316406 113.765625 223.074219 113.804688 222.832031 C 113.878906 222.351562 113.941406 221.871094 114.035156 221.390625 C 114.367188 219.472656 114.8125 217.570312 115.386719 215.707031 C 116.535156 211.984375 118.136719 208.398438 120.171875 205.078125 C 121.1875 203.414062 122.308594 201.8125 123.515625 200.28125 C 124.730469 198.757812 126.035156 197.308594 127.421875 195.9375 C 128.8125 194.574219 130.292969 193.300781 131.839844 192.113281 C 133.390625 190.933594 135.019531 189.855469 136.699219 188.875 C 138.386719 187.902344 140.132812 187.027344 141.925781 186.269531 C 142.378906 186.085938 142.824219 185.890625 143.28125 185.722656 C 143.507812 185.632812 143.734375 185.542969 143.964844 185.460938 L 144.652344 185.214844 L 144.996094 185.089844 L 145.34375 184.976562 L 146.039062 184.746094 L 146.738281 184.535156 L 147.089844 184.429688 L 147.441406 184.328125 L 148.144531 184.132812 L 148.851562 183.953125 C 149.324219 183.828125 149.800781 183.730469 150.277344 183.617188 C 151.230469 183.417969 152.1875 183.230469 153.152344 183.089844 C 154.113281 182.9375 155.085938 182.828125 156.054688 182.734375 C 156.539062 182.699219 157.023438 182.652344 157.511719 182.628906 L 158.242188 182.589844 L 158.972656 182.566406 L 159.339844 182.554688 L 159.703125 182.554688 C 159.703125 182.554688 160.433594 182.546875 160.433594 182.546875 L 161.164062 182.554688 C 161.40625 182.558594 161.648438 182.5625 161.894531 182.574219 L 162.625 182.605469 C 162.867188 182.613281 163.109375 182.632812 163.355469 182.648438 C 163.839844 182.675781 164.328125 182.722656 164.8125 182.765625 C 166.75 182.953125 168.679688 183.265625 170.578125 183.691406 C 172.476562 184.125 174.351562 184.667969 176.183594 185.332031 C 178.015625 185.996094 179.808594 186.769531 181.542969 187.660156 C 183.277344 188.550781 184.957031 189.542969 186.570312 190.636719 C 188.179688 191.734375 189.726562 192.929688 191.195312 194.210938 C 192.660156 195.496094 194.042969 196.875 195.335938 198.328125 C 196.632812 199.785156 197.832031 201.328125 198.9375 202.929688 C 200.035156 204.539062 201.035156 206.21875 201.929688 207.949219 C 202.816406 209.683594 203.609375 211.46875 204.273438 213.300781 C 204.9375 215.132812 205.503906 217 205.933594 218.902344 L 206.09375 219.613281 L 206.238281 220.332031 L 206.3125 220.691406 L 206.375 221.050781 L 206.503906 221.769531 C 206.65625 222.730469 206.792969 223.699219 206.886719 224.667969 C 207.292969 228.546875 207.199219 232.472656 206.636719 236.328125 C 206.347656 238.253906 205.945312 240.164062 205.421875 242.042969 C 204.894531 243.917969 204.261719 245.761719 203.503906 247.558594 C 202.746094 249.355469 201.882812 251.105469 200.910156 252.792969 C 199.933594 254.480469 198.859375 256.109375 197.6875 257.667969 Z M 197.683594 257.667969 " fill-opacity="1" fill-rule="nonzero"/><path fill="#6b99d6" d="M 113.894531 238.90625 C 114.652344 242.628906 115.855469 246.25 117.46875 249.671875 L 116.472656 250.140625 C 114.820312 246.636719 113.589844 242.933594 112.816406 239.128906 L 113.890625 238.90625 Z M 120.304688 254.820312 C 121.046875 255.984375 121.847656 257.132812 122.6875 258.226562 L 121.816406 258.894531 C 120.957031 257.773438 120.136719 256.601562 119.378906 255.40625 L 120.304688 254.816406 Z M 198.007812 257.914062 L 198.886719 258.574219 C 195.050781 263.664062 190.347656 267.878906 184.910156 271.09375 L 184.351562 270.148438 C 189.664062 267.003906 194.261719 262.886719 198.007812 257.914062 Z M 125.609375 261.679688 C 127.484375 263.6875 129.554688 265.550781 131.769531 267.214844 C 134.484375 269.265625 137.414062 271.015625 140.476562 272.425781 L 140.015625 273.425781 C 136.882812 271.980469 133.886719 270.1875 131.105469 268.09375 C 128.84375 266.386719 126.726562 264.480469 124.808594 262.429688 L 125.613281 261.679688 Z M 180.351562 272.261719 L 180.820312 273.257812 C 179.539062 273.855469 178.21875 274.40625 176.890625 274.890625 L 176.515625 273.863281 C 177.8125 273.386719 179.105469 272.847656 180.355469 272.261719 Z M 170.878906 275.53125 L 171.125 276.601562 C 167.546875 277.425781 163.871094 277.84375 160.199219 277.84375 C 157.054688 277.84375 153.898438 277.535156 150.820312 276.925781 L 151.035156 275.847656 C 154.039062 276.441406 157.125 276.746094 160.199219 276.746094 C 163.785156 276.746094 167.378906 276.335938 170.878906 275.53125 Z M 170.878906 275.53125 " fill-opacity="1" fill-rule="nonzero"/><path fill="#6b99d6" d="M 160.417969 196.308594 C 166.246094 196.308594 171.976562 197.839844 176.992188 200.742188 L 176.609375 201.398438 C 171.714844 198.566406 166.113281 197.070312 160.417969 197.070312 Z M 160.417969 196.308594 " fill-opacity="1" fill-rule="nonzero"/><g clip-path="url(#675bc2e1cb)"><path fill="#6b99d6" d="M 159.371094 119.550781 L 161.464844 119.550781 L 161.464844 196.691406 L 159.371094 196.691406 Z M 159.371094 119.550781 " fill-opacity="1" fill-rule="nonzero"/></g><path fill="#6b99d6" d="M 115.320312 151.519531 L 115.484375 151.421875 L 144.117188 201.023438 L 143.953125 201.117188 Z M 115.320312 151.519531 " fill-opacity="1" fill-rule="nonzero"/><g clip-path="url(#d0eb7a51f3)"><path fill="#6b99d6" d="M 35.640625 156.964844 L 72.070312 177.996094 L 71.6875 178.652344 L 35.261719 157.621094 Z M 82.785156 184.179688 L 90.367188 188.558594 L 89.988281 189.214844 L 82.402344 184.839844 Z M 98.609375 193.316406 L 132.234375 212.730469 L 131.851562 213.390625 L 98.226562 193.976562 Z M 98.609375 193.316406 " fill-opacity="1" fill-rule="nonzero"/></g><path fill="#6b99d6" d="M 66.359375 228.398438 L 127.664062 228.398438 L 127.664062 230.492188 L 66.359375 230.492188 Z M 66.359375 228.398438 " fill-opacity="1" fill-rule="nonzero"/><path fill="#6b99d6" d="M 42.878906 296.753906 L 132.378906 245.082031 L 132.851562 245.90625 L 43.355469 297.578125 Z M 42.878906 296.753906 " fill-opacity="1" fill-rule="nonzero"/><g clip-path="url(#d0e9468254)"><path fill="#6b99d6" d="M 92.039062 346.355469 L 143.378906 257.429688 L 144.699219 258.191406 L 93.355469 347.117188 Z M 92.039062 346.355469 " fill-opacity="1" fill-rule="nonzero"/></g><path fill="#6b99d6" d="M 159.941406 261.730469 L 160.894531 261.730469 L 160.894531 319.050781 L 159.941406 319.050781 Z M 159.941406 261.730469 " fill-opacity="1" fill-rule="nonzero"/><path fill="#6b99d6" d="M 176.757812 257.171875 L 193.65625 286.4375 L 193.160156 286.722656 L 176.261719 257.457031 Z M 199.839844 297.152344 L 204.21875 304.734375 L 203.722656 305.019531 L 199.34375 297.4375 Z M 208.976562 312.972656 L 228.390625 346.601562 L 227.894531 346.886719 L 208.480469 313.257812 Z M 208.976562 312.972656 " fill-opacity="1" fill-rule="nonzero"/><path fill="#6b99d6" d="M 188.652344 246.074219 L 188.9375 245.578125 L 257.953125 285.425781 L 257.667969 285.917969 Z M 188.652344 246.074219 " fill-opacity="1" fill-rule="nonzero"/><path fill="#6b99d6" d="M 193.171875 229.347656 L 251.089844 229.347656 L 251.089844 229.539062 L 193.171875 229.539062 Z M 193.171875 229.347656 " fill-opacity="1" fill-rule="nonzero"/><g clip-path="url(#53bdf3c75d)"><path fill="#6b99d6" d="M 189.128906 211.996094 L 277.339844 161.066406 L 278.101562 162.386719 L 189.890625 213.316406 Z M 189.128906 211.996094 " fill-opacity="1" fill-rule="nonzero"/></g><path fill="#6b99d6" d="M 176.546875 200.917969 L 207.199219 147.828125 L 207.695312 148.113281 L 177.042969 201.203125 Z M 176.546875 200.917969 " fill-opacity="1" fill-rule="nonzero"/><path stroke-linecap="butt" transform="matrix(2.483692, 0, 0, 2.483692, 129.515397, 209.313543)" fill="none" stroke-linejoin="miter" d="M 6.210919 2.19987 L 3.999619 2.19987 L 3.999619 14.601078 L 6.210919 14.601078 Z M 7.008308 1.80039 L 7.008308 15.000559 C 7.008308 15.116943 6.962698 15.212882 6.871478 15.285229 C 6.78183 15.360721 6.695329 15.398467 6.608827 15.398467 L 3.601711 15.398467 C 3.483754 15.398467 3.387816 15.352857 3.312323 15.261637 C 3.239976 15.173563 3.203803 15.085488 3.203803 15.000559 L 3.203803 1.80039 C 3.203803 1.684005 3.24784 1.586494 3.335915 1.511002 C 3.427135 1.435509 3.515209 1.397763 3.601711 1.397763 L 6.608827 1.397763 C 6.726784 1.397763 6.821149 1.443373 6.895069 1.534593 C 6.970562 1.625813 7.008308 1.715461 7.008308 1.80039 Z M 12.195268 6.808056 C 12.195268 6.723126 12.231442 6.633479 12.303789 6.542259 C 12.379281 6.451039 12.476792 6.407002 12.593176 6.407002 L 12.624632 6.407002 C 12.775616 6.407002 12.887282 6.471485 12.961202 6.602024 L 18.097834 14.601078 L 20.480565 14.601078 L 20.480565 2.19987 L 18.272411 2.19987 L 18.272411 9.992893 C 18.272411 10.077822 18.234664 10.165897 18.159172 10.257117 C 18.086825 10.346764 17.992459 10.390801 17.874502 10.390801 L 17.839902 10.390801 C 17.69049 10.390801 17.578824 10.326318 17.503331 10.198925 L 12.371417 2.19987 L 9.983969 2.19987 L 9.983969 14.601078 L 12.195268 14.601078 Z M 12.991085 8.12131 L 12.991085 15.000559 C 12.991085 15.116943 12.945474 15.212882 12.855827 15.285229 C 12.76618 15.360721 12.679678 15.398467 12.593176 15.398467 L 9.58606 15.398467 C 9.468103 15.398467 9.372165 15.352857 9.296673 15.261637 C 9.224326 15.173563 9.18658 15.085488 9.18658 15.000559 L 9.18658 1.80039 C 9.18658 1.684005 9.23219 1.586494 9.320264 1.511002 C 9.411484 1.435509 9.499559 1.397763 9.58606 1.397763 L 12.593176 1.397763 C 12.742589 1.397763 12.854254 1.463819 12.929747 1.594358 L 17.471876 8.679639 L 17.471876 1.80039 C 17.471876 1.684005 17.517486 1.586494 17.608706 1.511002 C 17.699926 1.435509 17.788001 1.397763 17.874502 1.397763 L 20.883191 1.397763 C 20.999575 1.397763 21.093941 1.443373 21.167861 1.534593 C 21.243353 1.625813 21.281099 1.715461 21.281099 1.80039 L 21.281099 15.000559 C 21.281099 15.116943 21.235489 15.212882 21.144269 15.285229 C 21.053049 15.360721 20.966547 15.398467 20.883191 15.398467 L 17.874502 15.398467 C 17.723518 15.398467 17.611852 15.333984 17.537932 15.206591 Z M 12.991085 8.12131 " stroke="#6b99d6" stroke-width="1.26" stroke-opacity="1" stroke-miterlimit="4"/><g fill="#ffffff" fill-opacity="1"><g transform="translate(135.996281, 246.568924)"><g><path d="M 8.9375 -31.78125 L 3.453125 -31.78125 L 3.453125 -1 L 8.9375 -1 Z M 10.921875 -32.78125 L 10.921875 0 C 10.921875 0.289062 10.804688 0.53125 10.578125 0.71875 C 10.359375 0.90625 10.144531 1 9.9375 1 L 2.46875 1 C 2.175781 1 1.9375 0.882812 1.75 0.65625 C 1.5625 0.425781 1.46875 0.207031 1.46875 0 L 1.46875 -32.78125 C 1.46875 -33.070312 1.578125 -33.3125 1.796875 -33.5 C 2.023438 -33.6875 2.25 -33.78125 2.46875 -33.78125 L 9.9375 -33.78125 C 10.226562 -33.78125 10.460938 -33.664062 10.640625 -33.4375 C 10.828125 -33.207031 10.921875 -32.988281 10.921875 -32.78125 Z M 10.921875 -32.78125 "/></g></g></g><g fill="#ffffff" fill-opacity="1"><g transform="translate(150.858737, 246.568924)"><g><path d="M 8.9375 -20.34375 C 8.9375 -20.550781 9.03125 -20.769531 9.21875 -21 C 9.40625 -21.226562 9.644531 -21.34375 9.9375 -21.34375 L 10.015625 -21.34375 C 10.378906 -21.34375 10.65625 -21.179688 10.84375 -20.859375 L 23.609375 -1 L 29.515625 -1 L 29.515625 -31.78125 L 24.046875 -31.78125 L 24.046875 -12.4375 C 24.046875 -12.226562 23.953125 -12.007812 23.765625 -11.78125 C 23.578125 -11.550781 23.335938 -11.4375 23.046875 -11.4375 L 22.96875 -11.4375 C 22.59375 -11.4375 22.3125 -11.597656 22.125 -11.921875 L 9.375 -31.78125 L 3.453125 -31.78125 L 3.453125 -1 L 8.9375 -1 Z M 10.921875 -17.078125 L 10.921875 0 C 10.921875 0.289062 10.804688 0.53125 10.578125 0.71875 C 10.359375 0.90625 10.144531 1 9.9375 1 L 2.46875 1 C 2.175781 1 1.9375 0.882812 1.75 0.65625 C 1.5625 0.425781 1.46875 0.207031 1.46875 0 L 1.46875 -32.78125 C 1.46875 -33.070312 1.578125 -33.3125 1.796875 -33.5 C 2.023438 -33.6875 2.25 -33.78125 2.46875 -33.78125 L 9.9375 -33.78125 C 10.300781 -33.78125 10.578125 -33.617188 10.765625 -33.296875 L 22.046875 -15.6875 L 22.046875 -32.78125 C 22.046875 -33.070312 22.160156 -33.3125 22.390625 -33.5 C 22.617188 -33.6875 22.835938 -33.78125 23.046875 -33.78125 L 30.515625 -33.78125 C 30.804688 -33.78125 31.046875 -33.664062 31.234375 -33.4375 C 31.421875 -33.207031 31.515625 -32.988281 31.515625 -32.78125 L 31.515625 0 C 31.515625 0.289062 31.398438 0.53125 31.171875 0.71875 C 30.941406 0.90625 30.722656 1 30.515625 1 L 23.046875 1 C 22.671875 1 22.394531 0.835938 22.21875 0.515625 Z M 10.921875 -17.078125 "/></g></g></g><g fill="#6b99d6" fill-opacity="1"><g transform="translate(269.345407, 273.828699)"><g><path d="M 18.59375 -76.625 C 18.96875 -76.625 19.492188 -76.4375 20.171875 -76.0625 C 20.859375 -75.695312 21.203125 -74.800781 21.203125 -73.375 L 21.203125 -3.15625 C 21.203125 -1.726562 20.859375 -0.828125 20.171875 -0.453125 C 19.492188 -0.0859375 18.96875 0.09375 18.59375 0.09375 L 10.046875 0.09375 C 9.671875 0.09375 9.140625 -0.0859375 8.453125 -0.453125 C 7.773438 -0.828125 7.4375 -1.726562 7.4375 -3.15625 L 7.4375 -73.375 C 7.4375 -74.800781 7.773438 -75.695312 8.453125 -76.0625 C 9.140625 -76.4375 9.671875 -76.625 10.046875 -76.625 Z M 18.59375 -76.625 "/></g></g></g><g fill="#6b99d6" fill-opacity="1"><g transform="translate(302.639426, 273.828699)"><g><path d="M 73.28125 -76.625 C 73.65625 -76.625 74.179688 -76.453125 74.859375 -76.109375 C 75.546875 -75.773438 75.890625 -74.863281 75.890625 -73.375 L 75.890625 -11.90625 C 75.890625 -7.375 75.238281 -4.273438 73.9375 -2.609375 C 72.632812 -0.804688 70.617188 0.09375 67.890625 0.09375 L 61.09375 0.09375 C 59.851562 0.09375 58.800781 0 57.9375 -0.1875 C 57.5 -0.3125 57.0625 -0.453125 56.625 -0.609375 C 56.195312 -0.765625 55.796875 -0.960938 55.421875 -1.203125 C 54.679688 -1.640625 54 -2.320312 53.375 -3.25 C 53.070312 -3.6875 52.734375 -4.179688 52.359375 -4.734375 C 51.984375 -5.296875 51.613281 -5.953125 51.25 -6.703125 L 21.765625 -58.96875 C 21.703125 -59.082031 21.640625 -59.15625 21.578125 -59.1875 C 21.515625 -59.21875 21.484375 -59.234375 21.484375 -59.234375 L 21.015625 -59.234375 C 21.015625 -59.234375 21.015625 -59.21875 21.015625 -59.1875 C 21.015625 -59.15625 21.015625 -59.113281 21.015625 -59.0625 L 21.015625 -3.15625 C 21.015625 -1.726562 20.6875 -0.828125 20.03125 -0.453125 C 19.382812 -0.0859375 18.84375 0.09375 18.40625 0.09375 L 10.140625 0.09375 C 9.703125 0.09375 9.140625 -0.0859375 8.453125 -0.453125 C 7.773438 -0.828125 7.4375 -1.726562 7.4375 -3.15625 L 7.4375 -64.640625 C 7.4375 -69.160156 8.085938 -72.289062 9.390625 -74.03125 C 10.753906 -75.757812 12.769531 -76.625 15.4375 -76.625 L 22.40625 -76.625 C 23.03125 -76.625 23.617188 -76.609375 24.171875 -76.578125 C 24.734375 -76.546875 25.234375 -76.503906 25.671875 -76.453125 C 26.660156 -76.265625 27.523438 -75.890625 28.265625 -75.328125 C 28.890625 -74.890625 29.539062 -74.175781 30.21875 -73.1875 C 30.53125 -72.757812 30.859375 -72.265625 31.203125 -71.703125 C 31.546875 -71.140625 31.898438 -70.519531 32.265625 -69.84375 L 61.65625 -17.578125 C 61.71875 -17.390625 61.8125 -17.296875 61.9375 -17.296875 L 62.40625 -17.296875 C 62.40625 -17.359375 62.40625 -17.390625 62.40625 -17.390625 C 62.40625 -17.390625 62.40625 -17.421875 62.40625 -17.484375 L 62.40625 -73.375 C 62.40625 -74.863281 62.726562 -75.773438 63.375 -76.109375 C 64.03125 -76.453125 64.570312 -76.625 65 -76.625 Z M 73.28125 -76.625 "/></g></g></g><g fill="#6b99d6" fill-opacity="1"><g transform="translate(390.617466, 273.828699)"><g><path d="M 18.59375 -76.625 C 18.96875 -76.625 19.492188 -76.4375 20.171875 -76.0625 C 20.859375 -75.695312 21.203125 -74.800781 21.203125 -73.375 L 21.203125 -3.15625 C 21.203125 -1.726562 20.859375 -0.828125 20.171875 -0.453125 C 19.492188 -0.0859375 18.96875 0.09375 18.59375 0.09375 L 10.046875 0.09375 C 9.671875 0.09375 9.140625 -0.0859375 8.453125 -0.453125 C 7.773438 -0.828125 7.4375 -1.726562 7.4375 -3.15625 L 7.4375 -73.375 C 7.4375 -74.800781 7.773438 -75.695312 8.453125 -76.0625 C 9.140625 -76.4375 9.671875 -76.625 10.046875 -76.625 Z M 18.59375 -76.625 "/></g></g></g><g fill="#6b99d6" fill-opacity="1"><g transform="translate(423.911485, 273.828699)"><g><path d="M 71.703125 -76.625 C 72.140625 -76.625 72.695312 -76.453125 73.375 -76.109375 C 74.0625 -75.773438 74.40625 -74.894531 74.40625 -73.46875 L 74.40625 -66.21875 C 74.40625 -64.664062 74.0625 -63.71875 73.375 -63.375 C 72.695312 -63.039062 72.140625 -62.875 71.703125 -62.875 L 47.796875 -62.875 L 47.796875 -3.15625 C 47.796875 -1.726562 47.46875 -0.84375 46.8125 -0.5 C 46.164062 -0.164062 45.628906 0 45.203125 0 L 36.640625 0 C 36.265625 0 35.734375 -0.164062 35.046875 -0.5 C 34.367188 -0.84375 34.03125 -1.726562 34.03125 -3.15625 L 34.03125 -62.875 L 10.140625 -62.875 C 9.703125 -62.875 9.140625 -63.039062 8.453125 -63.375 C 7.773438 -63.71875 7.4375 -64.664062 7.4375 -66.21875 L 7.4375 -73.46875 C 7.4375 -74.894531 7.773438 -75.773438 8.453125 -76.109375 C 9.140625 -76.453125 9.703125 -76.625 10.140625 -76.625 Z M 71.703125 -76.625 "/></g></g></g><g fill="#6b99d6" fill-opacity="1"><g transform="translate(510.401542, 273.828699)"><g><path d="M 18.59375 -76.625 C 18.96875 -76.625 19.492188 -76.4375 20.171875 -76.0625 C 20.859375 -75.695312 21.203125 -74.800781 21.203125 -73.375 L 21.203125 -3.15625 C 21.203125 -1.726562 20.859375 -0.828125 20.171875 -0.453125 C 19.492188 -0.0859375 18.96875 0.09375 18.59375 0.09375 L 10.046875 0.09375 C 9.671875 0.09375 9.140625 -0.0859375 8.453125 -0.453125 C 7.773438 -0.828125 7.4375 -1.726562 7.4375 -3.15625 L 7.4375 -73.375 C 7.4375 -74.800781 7.773438 -75.695312 8.453125 -76.0625 C 9.140625 -76.4375 9.671875 -76.625 10.046875 -76.625 Z M 18.59375 -76.625 "/></g></g></g><g fill="#6b99d6" fill-opacity="1"><g transform="translate(543.695561, 273.828699)"><g><path d="M 71.703125 -76.625 C 72.140625 -76.625 72.679688 -76.453125 73.328125 -76.109375 C 73.984375 -75.773438 74.3125 -74.894531 74.3125 -73.46875 L 74.3125 -29.109375 C 74.3125 -26.503906 74.21875 -24.082031 74.03125 -21.84375 C 73.84375 -19.613281 73.53125 -17.601562 73.09375 -15.8125 C 72.226562 -11.96875 70.894531 -8.929688 69.09375 -6.703125 C 67.300781 -4.335938 64.882812 -2.597656 61.84375 -1.484375 C 59.050781 -0.492188 55.550781 0 51.34375 0 L 30.40625 0 C 26.195312 0 22.695312 -0.492188 19.90625 -1.484375 C 18.476562 -2.046875 17.144531 -2.757812 15.90625 -3.625 C 14.664062 -4.488281 13.609375 -5.515625 12.734375 -6.703125 C 10.816406 -9.054688 9.457031 -12.09375 8.65625 -15.8125 C 8.21875 -17.601562 7.90625 -19.613281 7.71875 -21.84375 C 7.53125 -24.082031 7.4375 -26.503906 7.4375 -29.109375 L 7.4375 -73.46875 C 7.4375 -74.894531 7.773438 -75.773438 8.453125 -76.109375 C 9.140625 -76.453125 9.703125 -76.625 10.140625 -76.625 L 18.59375 -76.625 C 19.03125 -76.625 19.570312 -76.453125 20.21875 -76.109375 C 20.875 -75.773438 21.203125 -74.894531 21.203125 -73.46875 L 21.203125 -27.625 C 21.203125 -26.257812 21.25 -24.972656 21.34375 -23.765625 C 21.4375 -22.554688 21.546875 -21.515625 21.671875 -20.640625 C 22.046875 -18.972656 22.570312 -17.582031 23.25 -16.46875 C 23.988281 -15.53125 24.921875 -14.847656 26.046875 -14.421875 C 26.660156 -14.234375 27.367188 -14.078125 28.171875 -13.953125 C 28.984375 -13.828125 29.882812 -13.765625 30.875 -13.765625 L 50.96875 -13.765625 C 51.957031 -13.765625 52.851562 -13.828125 53.65625 -13.953125 C 54.46875 -14.078125 55.179688 -14.234375 55.796875 -14.421875 C 56.910156 -14.847656 57.84375 -15.53125 58.59375 -16.46875 C 58.90625 -16.957031 59.195312 -17.554688 59.46875 -18.265625 C 59.75 -18.984375 59.953125 -19.773438 60.078125 -20.640625 C 60.203125 -21.515625 60.3125 -22.554688 60.40625 -23.765625 C 60.5 -24.972656 60.546875 -26.257812 60.546875 -27.625 L 60.546875 -73.46875 C 60.546875 -74.894531 60.867188 -75.773438 61.515625 -76.109375 C 62.171875 -76.453125 62.710938 -76.625 63.140625 -76.625 Z M 71.703125 -76.625 "/></g></g></g><g fill="#6b99d6" fill-opacity="1"><g transform="translate(630.092588, 273.828699)"><g><path d="M 85.09375 -76.625 C 88.195312 -76.625 90.304688 -75.632812 91.421875 -73.65625 C 92.410156 -71.914062 92.90625 -68.910156 92.90625 -64.640625 L 92.90625 -3.15625 C 92.90625 -1.726562 92.5625 -0.828125 91.875 -0.453125 C 91.195312 -0.0859375 90.640625 0.09375 90.203125 0.09375 L 82.21875 0.09375 C 81.84375 0.09375 81.3125 -0.0859375 80.625 -0.453125 C 79.945312 -0.828125 79.609375 -1.726562 79.609375 -3.15625 L 79.609375 -59.0625 C 79.609375 -59.113281 79.609375 -59.15625 79.609375 -59.1875 C 79.609375 -59.21875 79.609375 -59.234375 79.609375 -59.234375 L 79.140625 -59.234375 C 79.015625 -59.234375 78.953125 -59.175781 78.953125 -59.0625 L 62.96875 -19.625 C 62.34375 -17.695312 61.691406 -16.019531 61.015625 -14.59375 C 60.703125 -13.914062 60.34375 -13.296875 59.9375 -12.734375 C 59.53125 -12.179688 59.144531 -11.65625 58.78125 -11.15625 C 57.84375 -10.164062 56.847656 -9.484375 55.796875 -9.109375 C 54.804688 -8.742188 53.566406 -8.5625 52.078125 -8.5625 L 48.265625 -8.5625 C 46.898438 -8.5625 45.660156 -8.742188 44.546875 -9.109375 C 43.984375 -9.296875 43.46875 -9.578125 43 -9.953125 C 42.539062 -10.328125 42.066406 -10.726562 41.578125 -11.15625 C 40.765625 -12.144531 40.019531 -13.289062 39.34375 -14.59375 C 38.71875 -16.019531 38.066406 -17.695312 37.390625 -19.625 L 21.484375 -58.96875 C 21.421875 -59.144531 21.328125 -59.234375 21.203125 -59.234375 L 20.734375 -59.234375 C 20.734375 -59.234375 20.734375 -59.21875 20.734375 -59.1875 C 20.734375 -59.15625 20.734375 -59.113281 20.734375 -59.0625 L 20.734375 -3.15625 C 20.734375 -1.726562 20.40625 -0.828125 19.75 -0.453125 C 19.101562 -0.0859375 18.566406 0.09375 18.140625 0.09375 L 10.140625 0.09375 C 9.703125 0.09375 9.140625 -0.0859375 8.453125 -0.453125 C 7.773438 -0.828125 7.4375 -1.726562 7.4375 -3.15625 L 7.4375 -64.640625 C 7.4375 -68.910156 7.929688 -71.914062 8.921875 -73.65625 C 10.046875 -75.632812 12.1875 -76.625 15.34375 -76.625 L 23.90625 -76.625 C 25.269531 -76.625 26.351562 -76.503906 27.15625 -76.265625 C 28.207031 -75.953125 29.078125 -75.484375 29.765625 -74.859375 C 30.066406 -74.492188 30.390625 -74.09375 30.734375 -73.65625 C 31.078125 -73.21875 31.375 -72.722656 31.625 -72.171875 C 31.863281 -71.609375 32.125 -70.96875 32.40625 -70.25 C 32.6875 -69.539062 32.953125 -68.753906 33.203125 -67.890625 L 49.5625 -26.78125 C 49.625 -26.59375 49.6875 -26.484375 49.75 -26.453125 C 49.8125 -26.421875 49.84375 -26.40625 49.84375 -26.40625 L 50.78125 -26.40625 C 50.90625 -26.40625 51 -26.53125 51.0625 -26.78125 L 67.515625 -67.890625 C 67.828125 -68.753906 68.109375 -69.539062 68.359375 -70.25 C 68.609375 -70.96875 68.851562 -71.609375 69.09375 -72.171875 C 69.40625 -72.722656 69.71875 -73.21875 70.03125 -73.65625 C 70.34375 -74.09375 70.648438 -74.492188 70.953125 -74.859375 C 71.703125 -75.546875 72.539062 -76.015625 73.46875 -76.265625 C 74.269531 -76.503906 75.351562 -76.625 76.71875 -76.625 Z M 85.09375 -76.625 "/></g></g></g><path stroke-linecap="butt" transform="matrix(0.75, 0, 0, 0.75, 115.464303, 179.867609)" fill="none" stroke-linejoin="miter" d="M 224.792406 14.827564 C 225.297614 14.827564 226.005948 15.077564 226.912198 15.582772 C 227.823656 16.067147 228.276781 17.259856 228.276781 19.155689 L 228.276781 112.791113 C 228.276781 114.686947 227.823656 115.890072 226.912198 116.39528 C 226.005948 116.879655 225.297614 117.119239 224.792406 117.119239 L 213.380947 117.119239 C 212.896572 117.119239 212.198655 116.879655 211.292405 116.39528 C 210.386155 115.890072 209.927821 114.686947 209.927821 112.791113 L 209.927821 19.155689 C 209.927821 17.259856 210.386155 16.067147 211.292405 15.582772 C 212.198655 15.077564 212.896572 14.827564 213.380947 14.827564 Z M 342.115332 14.827564 C 342.599707 14.827564 343.297623 15.056731 344.203873 15.525481 C 345.110124 15.968189 345.568457 17.176522 345.568457 19.155689 L 345.568457 101.134862 C 345.568457 107.171321 344.698665 111.296321 342.96429 113.52028 C 341.224707 115.921322 338.542415 117.119239 334.912206 117.119239 L 325.860122 117.119239 C 324.203872 117.119239 322.80283 116.999447 321.651788 116.759864 C 321.063247 116.598405 320.479913 116.416113 319.89658 116.212988 C 319.328872 115.98903 318.792413 115.718197 318.287205 115.39528 C 317.30283 114.811947 316.391371 113.900488 315.563246 112.671322 C 315.162205 112.087988 314.70908 111.421321 314.203871 110.671321 C 313.698663 109.92653 313.203871 109.056738 312.719496 108.067154 L 273.396576 38.379649 C 273.313243 38.218191 273.22991 38.119232 273.151785 38.077566 C 273.07366 38.035899 273.031993 38.015066 273.031993 38.015066 L 272.427826 38.015066 C 272.427826 38.015066 272.427826 38.035899 272.427826 38.077566 C 272.427826 38.119232 272.427826 38.176524 272.427826 38.259857 L 272.427826 112.791113 C 272.427826 114.686947 271.990326 115.890072 271.125743 116.39528 C 270.255951 116.879655 269.526784 117.119239 268.943451 117.119239 L 257.896575 117.119239 C 257.328867 117.119239 256.594492 116.879655 255.683033 116.39528 C 254.776783 115.890072 254.323658 114.686947 254.323658 112.791113 L 254.323658 30.81194 C 254.323658 24.775481 255.188242 20.608814 256.927825 18.306731 C 258.740325 15.989022 261.427825 14.827564 264.979909 14.827564 L 274.271576 14.827564 C 275.099701 14.827564 275.88616 14.848397 276.630952 14.890064 C 277.380952 14.926522 278.037202 14.989022 278.599702 15.067147 C 279.933035 15.311939 281.094494 15.806731 282.084077 16.551522 C 282.912202 17.140064 283.776785 18.087981 284.688244 19.400481 C 285.110119 19.983814 285.542411 20.650481 285.990327 21.395273 C 286.453869 22.145273 286.927827 22.96819 287.412202 23.879648 L 326.61533 93.567153 C 326.693455 93.811945 326.818455 93.931737 326.979914 93.931737 L 327.584081 93.931737 C 327.584081 93.848403 327.584081 93.811945 327.584081 93.811945 C 327.584081 93.811945 327.584081 93.770278 327.584081 93.686945 L 327.584081 19.155689 C 327.584081 17.176522 328.016372 15.968189 328.886164 15.525481 C 329.750747 15.056731 330.479914 14.827564 331.063247 14.827564 Z M 386.490335 14.827564 C 386.995543 14.827564 387.698669 15.077564 388.610127 15.582772 C 389.516377 16.067147 389.969502 17.259856 389.969502 19.155689 L 389.969502 112.791113 C 389.969502 114.686947 389.516377 115.890072 388.610127 116.39528 C 387.698669 116.879655 386.995543 117.119239 386.490335 117.119239 L 375.078876 117.119239 C 374.594501 117.119239 373.896584 116.879655 372.990334 116.39528 C 372.078876 115.890072 371.625751 114.686947 371.625751 112.791113 L 371.625751 19.155689 C 371.625751 17.259856 372.078876 16.067147 372.990334 15.582772 C 373.896584 15.077564 374.594501 14.827564 375.078876 14.827564 Z M 501.693469 14.827564 C 502.276802 14.827564 503.021594 15.056731 503.933053 15.525481 C 504.839303 15.968189 505.292428 17.140064 505.292428 19.035898 L 505.292428 28.723398 C 505.292428 30.78069 504.839303 32.041107 503.933053 32.504649 C 503.021594 32.952565 502.276802 33.171315 501.693469 33.171315 L 469.813258 33.171315 L 469.813258 112.791113 C 469.813258 114.686947 469.380967 115.869238 468.511175 116.33278 C 467.646591 116.775489 466.927841 116.999447 466.360133 116.999447 L 454.948674 116.999447 C 454.443465 116.999447 453.74034 116.775489 452.828882 116.33278 C 451.922632 115.869238 451.469507 114.686947 451.469507 112.791113 L 451.469507 33.171315 L 419.589296 33.171315 C 419.026796 33.171315 418.287213 32.952565 417.380963 32.504649 C 416.469504 32.041107 416.016379 30.78069 416.016379 28.723398 L 416.016379 19.035898 C 416.016379 17.140064 416.469504 15.968189 417.380963 15.525481 C 418.287213 15.056731 419.026796 14.827564 419.589296 14.827564 Z M 546.203889 14.827564 C 546.709098 14.827564 547.412223 15.077564 548.323681 15.582772 C 549.229931 16.067147 549.683056 17.259856 549.683056 19.155689 L 549.683056 112.791113 C 549.683056 114.686947 549.229931 115.890072 548.323681 116.39528 C 547.412223 116.879655 546.709098 117.119239 546.203889 117.119239 L 534.787222 117.119239 C 534.302847 117.119239 533.610138 116.879655 532.69868 116.39528 C 531.79243 115.890072 531.339305 114.686947 531.339305 112.791113 L 531.339305 19.155689 C 531.339305 17.259856 531.79243 16.067147 532.69868 15.582772 C 533.610138 15.077564 534.302847 14.827564 534.787222 14.827564 Z M 661.401815 14.827564 C 661.990357 14.827564 662.714315 15.056731 663.584107 15.525481 C 664.44869 15.968189 664.88619 17.140064 664.88619 19.035898 L 664.88619 78.186944 C 664.88619 81.660902 664.755982 84.890069 664.490357 87.874445 C 664.250773 90.843195 663.834107 93.525487 663.250773 95.931737 C 662.099732 101.056737 660.32369 105.103613 657.922648 108.067154 C 655.542439 111.218196 652.323689 113.530697 648.266397 114.999447 C 644.552855 116.33278 639.88098 116.999447 634.250771 116.999447 L 606.334102 116.999447 C 600.724727 116.999447 596.063268 116.33278 592.349726 114.999447 C 590.433059 114.275488 588.646601 113.337988 586.990351 112.186946 C 585.334101 111.015071 583.933059 109.64528 582.782017 108.067154 C 580.219517 104.921321 578.401808 100.874446 577.3341 95.931737 C 576.750767 93.525487 576.3341 90.843195 576.094517 87.874445 C 575.849725 84.890069 575.729933 81.660902 575.729933 78.186944 L 575.729933 19.035898 C 575.729933 17.140064 576.183058 15.968189 577.094517 15.525481 C 578.000767 15.056731 578.735142 14.827564 579.30285 14.827564 L 590.594518 14.827564 C 591.177851 14.827564 591.907018 15.056731 592.771601 15.525481 C 593.641393 15.968189 594.073685 17.140064 594.073685 19.035898 L 594.073685 80.155694 C 594.073685 81.994236 594.136185 83.718194 594.255976 85.332778 C 594.375768 86.926528 594.521601 88.311945 594.68306 89.48382 C 595.188268 91.70257 595.891393 93.556737 596.797643 95.051528 C 597.787227 96.280695 599.032018 97.192154 600.521602 97.775487 C 601.349727 98.020279 602.297644 98.228612 603.37056 98.410904 C 604.438269 98.572362 605.641394 98.655695 606.969519 98.655695 L 633.766396 98.655695 C 635.073688 98.655695 636.266396 98.572362 637.334105 98.410904 C 638.427855 98.228612 639.386188 98.020279 640.214313 97.775487 C 641.688272 97.192154 642.917438 96.280695 643.907022 95.051528 C 644.328897 94.384862 644.72473 93.57757 645.084105 92.629653 C 645.469522 91.681737 645.740355 90.629653 645.901814 89.48382 C 646.063272 88.311945 646.203897 86.926528 646.328897 85.332778 C 646.448689 83.718194 646.511189 81.994236 646.511189 80.155694 L 646.511189 19.035898 C 646.511189 17.140064 646.94348 15.968189 647.813272 15.525481 C 648.698689 15.056731 649.427856 14.827564 649.990356 14.827564 Z M 794.459117 14.827564 C 798.599742 14.827564 801.401826 16.150481 802.875784 18.791106 C 804.209118 21.114023 804.875784 25.119231 804.875784 30.81194 L 804.875784 112.791113 C 804.875784 114.686947 804.422659 115.890072 803.511201 116.39528 C 802.604951 116.879655 801.860159 117.119239 801.271617 117.119239 L 790.615367 117.119239 C 790.110158 117.119239 789.407033 116.879655 788.495575 116.39528 C 787.589325 115.890072 787.1362 114.686947 787.1362 112.791113 L 787.1362 38.259857 C 787.1362 38.176524 787.1362 38.119232 787.1362 38.077566 C 787.1362 38.035899 787.1362 38.015066 787.1362 38.015066 L 786.532033 38.015066 C 786.349741 38.015066 786.255991 38.098399 786.255991 38.259857 L 764.94349 90.843195 C 764.115365 93.405695 763.250781 95.634862 762.339323 97.535904 C 761.917448 98.442154 761.433073 99.270279 760.886198 100.015071 C 760.365364 100.765071 759.860156 101.457779 759.375781 102.103612 C 758.120572 103.436946 756.802864 104.353613 755.40703 104.858821 C 754.078905 105.343196 752.422655 105.587988 750.443488 105.587988 L 745.360155 105.587988 C 743.542446 105.587988 741.886196 105.343196 740.391404 104.858821 C 739.646613 104.598404 738.959113 104.223404 738.334112 103.739029 C 737.729946 103.233821 737.094529 102.692154 736.427862 102.103612 C 735.354946 100.791112 734.370571 99.270279 733.459112 97.535904 C 732.630987 95.634862 731.766404 93.405695 730.854945 90.843195 L 709.636194 38.379649 C 709.55286 38.140066 709.433069 38.015066 709.27161 38.015066 L 708.636194 38.015066 C 708.636194 38.015066 708.636194 38.035899 708.636194 38.077566 C 708.636194 38.119232 708.636194 38.176524 708.636194 38.259857 L 708.636194 112.791113 C 708.636194 114.686947 708.203902 115.890072 707.33411 116.39528 C 706.464318 116.879655 705.750777 117.119239 705.183068 117.119239 L 694.500776 117.119239 C 693.933067 117.119239 693.198692 116.879655 692.287234 116.39528 C 691.380984 115.890072 690.927859 114.686947 690.927859 112.791113 L 690.927859 30.81194 C 690.927859 25.119231 691.584109 21.114023 692.891401 18.791106 C 694.386192 16.150481 697.245568 14.827564 701.45911 14.827564 L 712.875777 14.827564 C 714.688277 14.827564 716.136194 14.989022 717.203903 15.311939 C 718.615361 15.733814 719.776819 16.358814 720.683069 17.186939 C 721.089319 17.671314 721.511195 18.207772 721.953903 18.791106 C 722.422653 19.379648 722.823695 20.046314 723.167445 20.791106 C 723.490361 21.515064 723.834111 22.364023 724.198695 23.332773 C 724.578903 24.28069 724.93307 25.332773 725.255986 26.483815 L 747.084113 81.275486 C 747.162238 81.541111 747.245572 81.692152 747.323697 81.733819 C 747.40703 81.770277 747.448697 81.791111 747.448697 81.791111 L 748.68828 81.791111 C 748.870572 81.791111 749.00078 81.619236 749.078905 81.275486 L 771.032032 26.483815 C 771.433073 25.332773 771.797657 24.28069 772.120573 23.332773 C 772.464323 22.364023 772.797657 21.515064 773.120574 20.791106 C 773.542449 20.046314 773.953907 19.379648 774.360157 18.791106 C 774.782032 18.207772 775.198699 17.671314 775.59974 17.186939 C 776.589324 16.280689 777.709116 15.655689 778.959116 15.311939 C 780.032032 14.989022 781.474741 14.827564 783.292449 14.827564 Z M 794.459117 14.827564 " stroke="#ffffff" stroke-width="3.565115" stroke-opacity="1" stroke-miterlimit="4"/></svg>
